<?xml version="1.0" encoding="utf-8"?>
<!-- Generator: Adobe Illustrator 23.1.0, SVG Export Plug-In . SVG Version: 6.00 Build 0)  -->
<!DOCTYPE svg PUBLIC "-//W3C//DTD SVG 1.1//EN" "http://www.w3.org/Graphics/SVG/1.1/DTD/svg11.dtd" [
	<!ENTITY ns_extend "http://ns.adobe.com/Extensibility/1.0/">
	<!ENTITY ns_ai "http://ns.adobe.com/AdobeIllustrator/10.0/">
	<!ENTITY ns_graphs "http://ns.adobe.com/Graphs/1.0/">
	<!ENTITY ns_vars "http://ns.adobe.com/Variables/1.0/">
	<!ENTITY ns_imrep "http://ns.adobe.com/ImageReplacement/1.0/">
	<!ENTITY ns_sfw "http://ns.adobe.com/SaveForWeb/1.0/">
	<!ENTITY ns_custom "http://ns.adobe.com/GenericCustomNamespace/1.0/">
	<!ENTITY ns_adobe_xpath "http://ns.adobe.com/XPath/1.0/">
]>
<svg version="1.1" id="Facebook" xmlns:x="&ns_extend;" xmlns:i="&ns_ai;" xmlns:graph="&ns_graphs;"
	 xmlns="http://www.w3.org/2000/svg" xmlns:xlink="http://www.w3.org/1999/xlink" x="0px" y="0px" viewBox="0 0 420 423.5"
	 style="enable-background:new 0 0 420 423.5;" xml:space="preserve">
<style type="text/css">
	.st0{fill-rule:evenodd;clip-rule:evenodd;fill:#D60202;}
</style>
<metadata>
	<sfw  xmlns="&ns_sfw;">
		<slices></slices>
		<sliceSourceBounds  bottomLeftOrigin="true" height="419" width="420" x="0" y="0"></sliceSourceBounds>
	</sfw>
</metadata>
<path class="st0" d="M210,4.5C94,4.5,0,98.3,0,214s94,209.5,210,209.5S420,329.7,420,214S326,4.5,210,4.5z M265.3,166.8l-3,37.6
	h-40.1V335h-50.6V204.4h-27v-37.6h27v-25.3c0-11.1,0.3-28.3,8.7-38.9c8.9-11.3,21-18.9,41.9-18.9c34.1,0,48.4,4.7,48.4,4.7
	l-6.8,38.5c0,0-11.2-3.1-21.8-3.1c-10.5,0-19.9,3.6-19.9,13.7v29.4L265.3,166.8L265.3,166.8z"/>
</svg>
