<?xml version="1.0" encoding="utf-8"?>
<!-- Generator: Adobe Illustrator 23.1.0, SVG Export Plug-In . SVG Version: 6.00 Build 0)  -->
<!DOCTYPE svg PUBLIC "-//W3C//DTD SVG 1.1//EN" "http://www.w3.org/Graphics/SVG/1.1/DTD/svg11.dtd" [
	<!ENTITY ns_extend "http://ns.adobe.com/Extensibility/1.0/">
	<!ENTITY ns_ai "http://ns.adobe.com/AdobeIllustrator/10.0/">
	<!ENTITY ns_graphs "http://ns.adobe.com/Graphs/1.0/">
	<!ENTITY ns_vars "http://ns.adobe.com/Variables/1.0/">
	<!ENTITY ns_imrep "http://ns.adobe.com/ImageReplacement/1.0/">
	<!ENTITY ns_sfw "http://ns.adobe.com/SaveForWeb/1.0/">
	<!ENTITY ns_custom "http://ns.adobe.com/GenericCustomNamespace/1.0/">
	<!ENTITY ns_adobe_xpath "http://ns.adobe.com/XPath/1.0/">
]>
<svg version="1.1" id="圖層_1" xmlns:x="&ns_extend;" xmlns:i="&ns_ai;" xmlns:graph="&ns_graphs;"
	 xmlns="http://www.w3.org/2000/svg" xmlns:xlink="http://www.w3.org/1999/xlink" x="0px" y="0px" viewBox="0 0 595 113"
	 style="enable-background:new 0 0 595 113;" xml:space="preserve">
<style type="text/css">
	.st0{fill:#202020;}
	.st1{fill:#231815;}
</style>
<metadata>
	<sfw  xmlns="&ns_sfw;">
		<slices></slices>
		<sliceSourceBounds  bottomLeftOrigin="true" height="78.3" width="591.3" x="1.2" y="-111.2"></sliceSourceBounds>
	</sfw>
</metadata>
<g>
	<path class="st0" d="M180.6,74.3c0.4,0.3,0.6,0.5,0.6,0.6c0,0.2-0.2,0.3-0.5,0.3l-2.6,0.1l-2.2,0.5l-2.3-0.5
		c0.1,0.1,0.1,0.1,0.1,0.2s-0.1,0.1-0.2,0.1c-0.1,0-0.2,0.1-0.3,0.1c-0.5-0.2-1-0.4-1.6-0.4l-1.6,0.1l-1.5-0.1l-0.4,0.2l-2.1-0.3
		l-0.6,0.1l-0.1-0.4l-1.7,0.4l-0.8,0c-0.3,0-0.6,0.1-1.1,0.4l-0.4-0.4h-0.2c-0.2,0-0.3,0.1-0.4,0.2c-0.1,0.2-0.2,0.2-0.3,0.2h-0.1
		l-0.3-0.2h-0.8c-0.1,0.1-0.3,0.2-0.5,0.2c-0.3,0-0.7-0.2-1.3-0.5c0.1,0.1,0.1,0.2,0.1,0.2s-0.1,0.1-0.3,0.2l-0.3,0.1
		c-0.4,0-0.6,0-0.7-0.1c-0.1,0-0.2-0.1-0.2-0.2c0-0.1-0.1-0.2-0.2-0.4l-0.8-0.3l0.3-0.4c-0.3-0.3-0.5-0.5-0.6-0.8
		c0.2-0.2,0.6-0.4,1-0.5c0.5-0.1,0.7-0.2,0.9-0.2c0.1,0,0.2,0,0.3,0.1c0.1,0.1,0.3,0.1,0.5,0.1l2.2-0.3l1.1-0.4l1.4,0.1l1.8,0.5
		c0.4,0.1,0.6,0.1,0.7,0.1c0.3,0,0.7-0.1,1.3-0.3l-0.2-0.7l0.2-0.4l-0.6-1.3l0.1-1c-0.1-0.2-0.2-0.3-0.2-0.5c0-0.2,0.1-0.2,0.2-0.2
		c-0.2-0.5-0.3-1.3-0.3-2.5c0-0.2,0.2-0.4,0.6-0.7l0.1-0.5l-0.1-1c0.2-0.3,0.2-0.5,0.2-0.8c0-0.4-0.2-0.7-0.6-1.1l-0.1-0.7l0.5-0.2
		l-0.3-0.6l0.5-0.9l-0.4-1.1l0.5-0.6l0.4-1.9v-0.2c0-0.3,0-0.5,0.1-0.8l0.5-0.4l-0.5-0.8c-0.1-0.1-0.1-0.2-0.1-0.4l0.5-1.3h-0.8
		c-0.2-0.1-0.4-0.1-0.6-0.1c-0.3,0-0.5,0.1-0.7,0.2c-0.2,0.1-0.4,0.2-0.5,0.2c-0.2,0-0.4,0.1-0.8,0.3c-0.4,0.2-0.6,0.3-0.6,0.3h-0.7
		c-0.7,0.4-1.3,0.6-1.7,0.7l-0.7,0.8l-0.6-0.3l-1,0.3c-0.8,0.1-1.4,0.3-1.9,0.8c-0.3-0.2-0.6-0.3-1-0.4c-0.3-0.1-0.8-0.3-1.5-0.6
		l-0.2-0.5c0.2-0.4,0.4-0.6,0.8-0.6c0.1,0,0.3,0,0.5,0.1c0.2,0.3,0.5,0.5,1,0.5c0.1,0,0.3,0,0.6-0.1l0.4-0.1c0.2,0,0.3,0,0.5,0.1
		s0.3,0.1,0.4,0.1c0.1,0,0.3-0.1,0.5-0.4c0.2-0.3,0.6-0.5,1.2-0.6l0.7-0.2h0.4c0.5,0,1-0.2,1.4-0.5c0.4-0.4,0.8-0.6,0.9-0.6
		c0.1,0.1,0.2,0.2,0.4,0.2c0.2,0,0.4-0.2,0.5-0.6c0.6-0.1,0.9-0.2,0.9-0.3c0,0-0.1-0.1-0.2-0.2h0.6c0.2,0,0.4-0.3,0.6-1l-0.2-0.4
		l0.3-0.2l0.8,0.2c0.2,0,0.5-0.1,1-0.3c0.4-0.2,0.6-0.4,0.6-0.8c-0.1-0.4-0.1-0.6-0.1-0.8c0-0.3,0.1-0.6,0.2-0.9l1.6-0.4h1.6
		l0.7,0.8c0.1,0.4,0.1,0.6,0.1,0.7c0,0.1,0,0.2-0.1,0.3l-1.9,1.7c-0.1,0.1-0.1,0.2-0.1,0.4c0,0.3,0.2,0.5,0.6,0.8l-0.8,0.5
		c0,0.2,0.1,0.4,0.2,0.6l-0.9,0.8c0.1,0.1,0.1,0.1,0.1,0.2c0,0.1-0.1,0.2-0.2,0.5c-0.2,0.3-0.2,0.5-0.2,0.8c0,0.1,0,0.3,0.1,0.6
		l-0.3,0.8c-0.1,0.2-0.1,0.4-0.2,0.6c0,0.2-0.1,0.4-0.1,0.7s-0.1,0.5-0.1,0.7c0,0.2-0.1,0.5-0.4,0.8l0.2,0.5l-0.6,1.2l0.2,1
		l-0.2,0.9l-0.3,0.1l0.4,1l-0.4,1.1c0.2,0.5,0.3,0.8,0.3,0.9c0,0.2-0.2,0.4-0.5,0.5c0.4,0.4,0.5,0.7,0.6,1L167,67
		c0.1,0.2,0.2,0.4,0.2,0.5c0,0.1,0,0.2-0.1,0.2c0.1,0.4,0.2,0.8,0.2,1.1c0,0.5-0.1,0.8-0.4,1.1c0.1,0.4,0.4,0.7,0.7,0.8
		c-0.2,0.4-0.2,0.6-0.2,0.7c0,0.2,0.1,0.4,0.3,0.5c-0.1,0.1-0.2,0.2-0.2,0.4c0,0.2,0.2,0.5,0.7,0.9c0.1,0.3,0.3,0.5,0.6,0.5h0.2
		l0.3-0.4l0.5,0.3l0.8-0.3l0.1,0.6l1.4-0.6l-0.1,0.4l1.5,0.4c0.2-0.1,0.5-0.2,0.8-0.2c0.3,0,0.7,0.1,1,0.4h0.6
		c0.4,0,0.8-0.1,1.2-0.2c0.4-0.1,0.7-0.1,0.8-0.1c0.1,0,0.4,0,0.8,0.1c0.4,0.1,0.8,0.2,1.1,0.2l0.2,0.4L180.6,74.3z"/>
	<path class="st0" d="M219.8,68.8l-0.6,0.7c-0.1,0.1-0.2,0.2-0.2,0.4l-0.2,0.7l-0.9,0.5h-0.5v0.5l-0.6,0.1l-0.7,0.9
		c-0.7,0.2-1.2,0.4-1.6,0.6s-0.7,0.3-0.9,0.3c-0.3,0.5-0.9,0.7-2,0.8c-0.2,0.2-0.6,0.3-1.4,0.6c-0.8,0.2-1.2,0.3-1.2,0.3l-0.7-0.1
		l-2.7,0.8l-1-0.1l-1.1-0.3c-0.3,0-0.7,0.1-1.3,0.3l-1.2,0.2l-1-0.2l-0.6,0.2c-0.3-0.2-0.6-0.3-1.1-0.4l-0.7,0.4
		c-0.1,0-0.2-0.1-0.4-0.3c-0.1-0.2-0.3-0.3-0.4-0.4c-0.1,0.3-0.2,0.5-0.5,0.6c-0.2,0-0.4-0.2-0.7-0.4c0,0.3-0.1,0.4-0.2,0.4
		c0,0-0.2-0.1-0.5-0.2c-0.3-0.1-0.7-0.2-1.1-0.2l-0.1,0.2L193,75l-0.6,0.4l-0.7-0.3c-0.1,0-0.1,0.1-0.3,0.2s-0.2,0.2-0.3,0.2
		l-0.1-0.1v-0.1c0-0.2-0.2-0.3-0.6-0.3c-0.4,0-0.7-0.2-0.8-0.5c-0.1-0.3-0.1-0.9-0.1-1.8c0-0.8,0.3-1.1,0.8-1.1h0.4
		c0-0.1,0.6-0.3,1.7-0.4l1.4-0.2c0.1,0,0.2,0.1,0.3,0.2s0.2,0.3,0.2,0.4c0,0.1-0.1,0.2-0.2,0.3c-0.1,0.1-0.7,0.2-1.8,0.3
		c-0.5,0.1-0.8,0.4-0.8,0.9l-0.4,0.2c0.7,0.3,1.6,0.6,2.5,0.7c0.2,0.2,0.4,0.2,0.6,0.2c0.3,0,0.6-0.1,0.8-0.4l0.1,0.4l1.9-0.4
		c0.4,0.1,0.6,0.4,0.6,0.9c0.8-0.5,1.9-0.7,3.3-0.7c0.3,0,0.7,0.1,1.1,0.2c0.1-0.3,0.3-0.5,0.5-0.5c0.1,0,0.2,0.1,0.4,0.2
		c0.1,0.2,0.3,0.3,0.5,0.4c0.5-0.5,0.9-0.8,1.1-0.8h0.1c0.2,0.3,0.6,0.4,1.2,0.4l1.3-0.3l1.1,0.1l1.1-0.9c0.5,0.1,0.8,0.1,0.9,0.1
		c0.6,0,1.2-0.2,1.7-0.6c0.2,0,0.5,0.1,0.8,0.1c0.2,0,0.4,0,0.4-0.1l-0.1-0.6l1-0.8l0.9,0.1c0.1-0.1,0.4-0.4,1.1-0.8
		c0.7-0.4,1.2-0.9,1.7-1.5c0.2-1,0.2-1.6,0.2-1.8c0-0.2,0-0.3-0.1-0.4c0-0.1-0.1-0.2-0.2-0.3c-0.1-0.1-0.2-0.2-0.4-0.2
		c-0.2-0.1-0.3-0.1-0.6-0.2c-0.2-0.1-0.5-0.2-0.7-0.4l-0.7-0.6l-1.8-0.4l-1.3,0.3l-0.4-0.6l-0.6,0.1l-1.1-1l-0.5,0.5
		c-0.3-0.1-0.6-0.2-0.9-0.2c-0.2,0-0.4,0.1-0.7,0.2c-0.3-0.3-0.6-0.5-1-0.5l-0.6,0.2c-0.4,0.1-0.9,0.2-1.3,0.3l-0.4-0.4l-1.6-0.2
		l-1.1-0.5l-1.2,0.1c-0.7-0.4-1.2-0.7-1.5-1V61l-0.2-0.6l1-0.2c0.5-0.5,1.2-0.8,2.1-0.8c0.9-0.1,1.4-0.2,1.4-0.4l2,0.1
		c0.3-0.2,0.5-0.4,0.6-0.8c0.9-0.2,1.5-0.4,1.7-0.6h1.3l0.2-0.4h0.4c0.8,0,1.2-0.2,1.2-0.5c0-0.1,0-0.2-0.1-0.4
		c0.1-0.1,0.7-0.2,2-0.4c0-0.1,0.2-0.3,0.5-0.5c0.3-0.2,0.5-0.4,0.6-0.7c1.1-0.3,1.6-0.7,1.6-1.3l-0.1-0.3c0-0.1,0-0.1,0.1-0.1
		c-0.1-1-0.8-1.6-2.1-2l-2.4-0.6l-1.5,0.1l-0.5-0.1c-0.4-0.1-0.7-0.1-1.1-0.1l-1.6,0.2l-0.7-0.1l-1,0.3l-1.1-0.3l-0.6,0.1l-0.5,0.6
		c-0.7,0-1.1,0.1-1.2,0.1c-0.1,0-0.3,0.2-0.6,0.4l-0.3-0.2l-0.8,0.2l-0.2-0.2l-0.6,0.4c-0.2,0.3-0.3,0.5-0.5,0.5
		c-0.2,0-0.4-0.1-0.6-0.2h-0.2c-0.4,0-0.8,0.2-1.1,0.7h-0.2c-0.7,0-1.4,0.5-1.8,1.6c-0.6,0-1,0.2-1,0.5l-0.8-0.4l-0.4-0.7
		c-0.1-0.3-0.2-0.4-0.3-0.5c0-0.1,0.1-0.2,0.1-0.4c0-0.2,0-0.4-0.1-0.5l0.7-0.5c0-0.2,0.2-0.2,0.4-0.2l0.6,0.1l0.3-0.4l0.5,0.1h0.3
		c0.2,0,0.4-0.1,0.4-0.2c0,0-0.1-0.1-0.1-0.1c0.4-0.2,0.8-0.4,1.2-0.4c0.5,0,0.8-0.3,1.1-0.7h0.8c0.4-0.3,0.8-0.5,1.3-0.5
		c0.1,0.1,0.3,0.2,0.6,0.1c0.3,0,0.6-0.1,0.8-0.1c0.3,0,0.7-0.1,1.3-0.2l1.5-0.4l1,0.2c0.4-0.3,1-0.4,1.7-0.4h0.4
		c0.3,0.2,0.6,0.2,0.8,0.2c0,0,0.1-0.1,0.1-0.1c0.2,0,0.4,0.1,0.6,0.4l1.1-0.4l1.2,0.1l0.9-0.1v0.2l1.1,0.4c0.1,0.1,0.9,0.3,2.4,0.7
		l0.6,0.9l0.6,0.5c0.3,0.2,0.4,0.4,0.5,0.6l0.4,0.8c-0.1,0.1-0.2,0.3-0.4,0.7c-0.6,1.7-1.5,2.6-2.6,2.9l-0.3,0.5
		c-0.1,0.1-0.5,0.4-1.3,0.7l-1.4,0.3l-0.8,0.6c-0.9,0.3-1.7,0.6-2.3,1c-0.1-0.2-0.2-0.2-0.3-0.2c-0.1,0-0.2,0.1-0.4,0.4h-0.7
		l-0.4,0.5c-0.8,0.2-1.5,0.4-2.1,0.8l-0.3-0.1c-0.3,0.2-0.4,0.5-0.4,0.7c0,0.2,0.1,0.3,0.4,0.3c0.6,0.2,1,0.4,1.1,0.5l0.8-0.2
		l0.4,0.2l0.8-0.1c0.1,0.2,0.3,0.3,0.5,0.3h0.3l1-0.3l0.9,0.6l0.6-0.4c0.3,0.1,0.4,0.2,0.5,0.4c0.9,0.4,1.9,0.6,2.9,0.6
		c0.3,0.3,0.7,0.5,1.3,0.5h0.2l1,0.1l0.9,0.8h0.6l0.8,1l0.3,1.3c0,0.2,0.3,0.5,0.7,0.9l-0.1,0.5L219.8,68.8z"/>
	<path class="st0" d="M278.6,72.6c-0.4,1.5-1,2.6-1.6,3.1c-0.5-0.2-0.8-0.4-1-0.6l-1.1-1.7l-0.4-0.9l-0.8-2.8v-2.7l-0.2-2.3l0.2-1.3
		l-0.2-1.1v-1.7l-0.6-0.8l-0.2,0.5l-0.5,0.1l-0.9,2.1l-1.1,1.6h-0.5l-0.1,0.6c-0.1,0.2-0.2,0.5-0.3,0.8s-0.4,0.6-0.6,1.1l-1.6,1.8
		l-1.3,1.9l-1.4,1.4c-0.3,0.5-0.7,1-1.1,1.5l-0.8,0.6c-0.3,0.2-0.6,0.6-1,1.2l-1,0.4c-0.1,0-0.4,0.3-0.7,0.6l-0.7,0.1
		c-0.2,0-0.6,0.2-1.2,0.6l-0.5-0.1l-0.2,0.4l-0.7-0.1l-1.9-1.4c-0.3-0.4-0.5-1-0.7-1.7c-0.2-0.7-0.4-1.1-0.7-1.1l-0.3,0.1l0.6-1
		l-0.3-1l0.2-0.8l-0.1-1.1l0.4-1.8v-1.7l0.4-0.6v-1.5c0.3-0.6,0.4-1,0.4-1.4l0.2-0.2v-1.1l0.5-1l0.1-0.8c0.3-0.4,0.4-0.8,0.6-1.2
		l0.3-1.8c0.1-0.4,0.3-0.8,0.7-1.1l0.1-0.6c0-0.2,0.2-0.5,0.4-0.8c0.2-0.3,0.3-0.6,0.3-0.9c0.6-0.6,1.1-1,1.5-1.3l-0.1-0.2
		c0.3-0.1,0.4-0.2,0.4-0.3c0.1,0,0.2,0.1,0.4,0.1c0.2,0,0.3,0,0.4-0.1l-0.3-0.1l2.6-0.7c0.4,0,0.7-0.1,1-0.1c0.3,0,0.5-0.1,0.5-0.2
		v-0.1l1-0.1l0.5,0.3l0.3-0.1c0.1,0.2,0.2,0.3,0.5,0.3c0.1,0,0.2,0,0.2-0.1l1,0.1v0.3l0.2-0.1l0.9,0.8l0.9-0.2l0.5,1l1,0.8
		c0.1,0.1,0.3,0.4,0.5,0.9l1,0.5c0.3,0.3,0.6,0.5,0.7,0.5c0.1,0,0.2-0.1,0.2-0.2l0.4-2.1l0.5-1.1l-0.2-1.6l0.3-2.8l-0.3-0.7
		c0.3-0.4,0.4-0.8,0.4-1.3l-0.3-0.5l0.2-1.6l-0.2-1.7l0.3-0.4l-0.3-0.2c0.2-0.2,0.3-0.4,0.3-0.5c0-0.1,0-0.2-0.1-0.4
		c0.1-0.3,0.2-0.6,0.2-0.8c0-0.3-0.1-0.6-0.2-0.9h0.3c-0.1-0.2-0.1-0.3-0.1-0.6c0-0.3,0.2-0.5,0.6-0.7l-0.2-0.1l0.3-0.1
		c0.2,0,0.4,0.2,0.4,0.5c0.3,0.1,0.5,0.3,0.5,0.8h-0.3l0.1,1l-0.1,0.6h-0.4l0.6,0.7l-0.2,0.8l0.4,1l-0.3,0.4
		c0.2,0.5,0.3,0.8,0.3,1.1c0,0.2-0.1,0.5-0.2,0.7l0.5,0.4c-0.2,0.1-0.3,0.2-0.3,0.4c0,0.2,0.2,0.4,0.5,0.5v0.2
		c0,0.3-0.2,0.5-0.5,0.7v0.5c0,1-0.2,2.7-0.5,5c0,0.1,0.1,0.2,0.1,0.4c0,0.3-0.1,0.7-0.3,1.1l0.2,0.5l-0.4,1.4l-0.2,1.5
		c0,0.2-0.1,0.5-0.4,1l0.2,0.7l-0.4,1.1l0.4,0.8l-0.5,1.9l0.3,1.4l-0.2,0.8l0.1,0.8l-0.4,0.2c0.4,0.6,0.6,1,0.6,1
		c0,0.2-0.1,0.3-0.4,0.4l0.1,0.4l-0.1,0.2l0.4,0.4l-0.3,1l0.4,1.3l-0.2,0.4l0.2,0.4l-0.4,1.1l0.3,0.3h0.5l0.4,0.5l0.8-0.2l0.3,0.5
		L278.6,72.6z M272.9,56.2l-0.4-0.1l-0.6-0.6l-0.5-0.3c-0.1,0-0.2-0.3-0.5-0.8c-0.2-0.5-0.5-0.9-0.8-1.2c-0.2-0.1-0.4-0.2-0.5-0.4
		v-0.4l-0.9-0.2l-0.9-0.5c-0.2-0.1-0.4-0.2-0.7-0.3c-0.3-0.1-0.7-0.2-1.2-0.3l-1.8,0.2l-0.5,0.3l-0.6-0.4l-0.9,0.3h-1.2l-0.2,0.5
		l-0.4,0.1c0,0.3,0.1,0.5,0.2,0.6c-0.2,0.4-0.7,0.8-1.5,1.3l-0.4,1.1l-0.6,0.3l-0.5,1.6l-0.2,1.8l-0.6,0.5v1c-0.4,0.4-0.6,0.7-0.6,1
		l0.1,1.4l-1,1.9l-0.2,1.3l-0.1,2l0.2,0.4l-0.4,0.8l0.3,0.5l-0.5,1c0.3,0.6,0.6,1.3,0.8,2.2l0.6,0.3l-0.1,0.4h0.6
		c0.4,0.3,0.7,0.4,0.7,0.4c0,0,0.1-0.1,0.3-0.3c0.1-0.2,0.5-0.3,0.9-0.3v0.2c0.3-0.2,0.4-0.4,0.5-0.6c0.3,0,0.5-0.1,0.5-0.4l0.6-0.2
		l0.2,0.2l0.2-0.7l1.2-0.5l0.1-0.5l0.8-0.5v-0.3l0.6-0.7l0.2,0.1c0.2,0,0.2-0.1,0.2-0.4h0.4V69l1-0.4l-0.2-0.9l0.6-0.4l-0.4-0.4
		c0.1,0,0.2,0.1,0.4,0.1c0.2,0,0.5-0.1,0.7-0.3l0.1-0.2l0.6-0.1l0.7-1.8L268,64l0.2-1.1l0.7-0.2c0.5-0.9,1-1.5,1.3-1.8V60l0.6-0.2
		l1.5-3L272.9,56.2z"/>
	<path class="st0" d="M313.4,74.9l-0.8,0.4l-0.2,0.5c-0.3,0.1-0.6,0.2-0.9,0.3l-0.3-0.2l-0.4,0.2l-0.9-1.1v-1.3l-0.4-0.4l0.1-1.8
		l-0.4-3.8l0.2-1.3l-0.4-0.7l0.5-0.3l-0.4-0.5l0.1-0.6l0.3-0.2l-0.1-0.7h0.3v-1.2l0.1-0.6c-0.2,0-0.3-0.2-0.6-0.6l-0.9,0.4
		c-0.3,0.5-0.5,0.8-0.8,1l-0.1,0.6l-0.7,0.3l-0.1,0.8l-0.4,0.3v0.4c-0.4,0.3-0.7,0.6-0.8,1.1l-0.4,0.3l-0.9,1.6l-1.4,1.4l-0.5,0.8
		l-1.3,1.3l-0.3,0.7l-1.7,1.2l-1.9,2.3l-0.6,0.2c-0.2,0-0.5,0.2-0.9,0.6h-0.2c-0.3,0-0.6-0.3-0.8-1c-1.5-0.6-2.3-1.4-2.4-2.5
		l0.5-0.3c-0.3-0.8-0.4-1.5-0.5-2.3l-0.3-0.2l0.2-0.3c0.1-0.1,0.1-0.3,0.2-0.6c0-0.3,0.1-0.7,0.2-1.2l0.4-2.2c0-0.1-0.1-0.2-0.1-0.4
		c0-0.2,0.1-0.4,0.2-0.7c-0.1-0.3-0.1-0.5-0.1-0.6c0-0.2,0-0.4,0.1-0.6l0.2-0.1c0.3-0.4,0.5-0.8,0.5-1.1c0-0.2-0.1-0.4-0.2-0.5
		s-0.2-0.2-0.2-0.2c0-0.1,0.1-0.2,0.3-0.3c-0.3-0.1-0.4-0.2-0.4-0.4c0-0.2,0.2-0.3,0.6-0.3v-0.1c0-0.4,0.1-0.8,0.4-1.2
		c0.2-0.4,0.4-0.6,0.4-0.7l-0.4-0.1l0.8-1.3v-0.3c0-0.8,0.3-1.6,0.8-2.2l-0.1-1.1l0.3-0.2c-0.1-0.2-0.2-0.4-0.2-0.6
		c0-0.1,0.1-0.2,0.4-0.2v-1c0.2-0.1,0.3-0.2,0.3-0.3c0-0.1,0-0.2-0.1-0.3c0.1-0.2,0.4-0.5,0.8-1s0.7-0.9,0.8-1.2h0.2
		c0.4,0,0.7-0.1,0.7-0.3c0-0.1-0.1-0.2-0.2-0.3c0.8,0,1.2-0.2,1.3-0.5l1.1-0.6l3.1,0.3v0.2l2.5,0.5h0.2c0.4,0,0.6,0.2,0.6,0.5
		l0.3-0.1c0.1,0.4,0.3,0.5,0.7,0.5l0.3-0.1l0.5,0.5l1.3,0.3v0.5c0.6-0.4,1.3-0.7,2.2-1v1h-0.3l0.6,0.3l-0.1,0.1l0.5,1.5l-0.5,0.6
		l-0.2,1c-0.1,0.3-0.3,0.7-0.6,1.2l0.4,0.8c0,0.1-0.2,0.2-0.3,0.5c-0.2,0.3-0.3,0.7-0.3,1.3c0.1,0.1,0.2,0.2,0.2,0.3l-0.1,0.5
		l0.1,0.4l-0.2,0.6l0.1,0.6l-0.4,0.4l0.1,1.3l-0.2,0.2l0.2,0.3l-0.2,0.2c0,0,0.1,0.1,0.1,0.2c0,0.2-0.1,0.4-0.2,0.5l0.2,0.4
		l-0.3,0.5c-0.2,0.1-0.2,0.4-0.2,0.8l0.2,0.8l-0.6,0.7c0.2,0.4,0.4,0.7,0.6,0.8c-0.3,0.4-0.5,1.2-0.7,2.3l0.5,0.1l-0.1,0.3
		c0,0.1,0.1,0.2,0.1,0.4c0,0.3-0.1,0.7-0.4,1.2h0.4l0.2,0.9l1.2,0.1l0.4,0.8c-0.1,0.1-0.2,0.1-0.2,0.2c0,0.2,0.2,0.4,0.6,0.6H313
		c-0.1,0-0.1,0-0.1,0.1C312.9,74.4,313,74.6,313.4,74.9z M310.3,53.3l-0.4-1.1l-1-0.3l-1.7-1.5c-0.3-0.2-0.5-0.2-0.6-0.2
		c-0.1,0-0.3,0-0.5,0.1l-0.3-0.3h-1l-0.3-0.4l-0.7,0.3l-0.3-0.3l-0.5,0.1l-0.9-0.1c-0.4,0-1.2,0.2-2.1,0.7l0.1,0.2l-0.5,0.2
		l-0.1,0.2L299,51v0.4c-0.4,0.2-0.8,0.9-1.4,1.9c-0.3,1.2-0.7,2.2-1.1,3.1l0.5,0.2l-0.8,0.7l0.2,0.5c-0.4,0.5-0.5,1.1-0.5,1.8v0.3
		l-0.4,0.6v1c-0.3,0.4-0.5,0.7-0.5,1.1l-0.2,0.2V64l-0.2,0.3c0,0.4-0.1,0.9-0.2,1.6l0.3,0.7c-0.3,0.1-0.5,0.3-0.8,0.7l0.2,0.5
		l-0.4,0.5l0.5,1.2l-0.5,0.7l0.1,1.4l-0.2,0.7l0.3,0.2l0.1,0.4c0.3,0.1,0.6,0.4,0.8,0.7l1.4-0.3c0.3-0.6,0.7-0.9,1.3-0.9l-0.1-0.4
		c0.6-0.2,0.9-0.2,1-0.2c0,0,0.1-0.1,0.1-0.3c0.1-0.2,0.2-0.4,0.5-0.6h0.1c0.1,0,0.2-0.1,0.2-0.2l1.1-1.3h-0.2l0.6-0.6
		c0.2-0.2,0.5-0.4,1-0.6l0.4-1.1c0.7-0.3,1.2-0.7,1.3-1.3h0.4l0.6-0.8l-0.1-0.5l0.6-0.1c-0.1-0.1-0.1-0.2-0.1-0.3s0.1-0.3,0.4-0.7
		s0.5-0.7,0.6-1l0.3,0.1c0.1-0.5,0.3-0.8,0.6-1.1c0.1-0.3,0.2-0.6,0.5-0.7c0.2-0.2,0.4-0.3,0.5-0.3h0.4l0.1-0.7
		c0.1-0.1,0.1-0.2,0.1-0.2c0-0.1-0.1-0.2-0.2-0.4c0.4-0.6,0.6-0.9,0.8-1.1l0.1-0.6l0.4-0.3l-0.1-0.5c0.2-0.4,0.4-0.7,0.4-1.1
		l0.5-0.5L310.3,53.3z"/>
	<path class="st0" d="M336.1,37.3c-0.1,0.4-0.5,0.7-1,1v0.4l-0.5,0.6c-0.2,0.2-0.3,0.4-0.5,0.4c-0.1,0-0.2,0-0.3-0.1l-1.6,1.9
		l-0.4,0.6l-1.4,0.4l-0.7,1.1l-0.7,0.3c-0.2,0.1-0.6,0.5-1.3,1.1l-0.4-0.2l-0.1-0.7l1.4-0.6c0.2-1,0.4-1.5,0.7-1.7
		c0.3-0.1,0.5-0.2,0.5-0.2v-0.2l0.3-0.2l0.1,0.1l0.1-0.4h0.2l-0.2-0.5h0.9v-0.8l0.4-0.1l0.3-0.5l0.5-0.2l0.4-0.8
		c0.2,0,0.3-0.1,0.4-0.4h0.4l0.1-0.6c0.4-0.4,0.7-0.8,0.7-1.2C335.3,36,335.9,36.5,336.1,37.3z M342.1,67.5l-0.1,0.6l-0.6,0.4
		l-0.2,0.7l-0.8,0.2c-0.3,0.8-0.5,1.3-0.8,1.5l-0.7,0.3l-0.6,0.7c-0.2,0.1-0.5,0.4-1,1.1h-0.4c-0.3,0.4-0.7,0.6-1.3,0.7
		c-0.4,0.5-0.7,0.8-0.7,0.9c-0.3,0.2-0.7,0.3-1.1,0.4s-0.7,0.2-0.9,0.2l-0.2,0.4h-1l-0.5,0.4l-1.5-1.1l-0.8-1.9l-0.1-3.1l-0.2-0.6
		l0.6-4.9l0.4-0.3l-0.2-3.1c0-0.4,0.1-0.7,0.2-1s0.2-0.8,0.3-1.3l0.2-0.1c0-0.5-0.1-1.1-0.4-1.7l0.2-0.8v-1.1l0.3-0.4
		c0-0.3-0.1-0.6-0.2-1c-0.1-0.4-0.1-0.6-0.1-0.6c0-0.3,0.1-0.5,0.2-0.5c0,0,0.1,0.1,0.1,0.1c-0.3-0.6-0.4-1-0.4-1.2
		c0-0.3,0.1-0.4,0.4-0.4c0.1,0,0.2,0.1,0.4,0.2c0.2,0.1,0.3,0.2,0.5,0.2c0,0,0.1,0,0.3-0.1c0-0.3,0.1-0.5,0.4-0.5
		c0.2,0,0.4,0,0.4,0.1s0.1,0.5,0.2,1.1l0.6,0.3l-0.5,0.7l-0.6,3.8l0.5,1c0,0.5-0.2,0.8-0.6,1.1l-0.2,0.8l0.2,0.7l-0.7,2.5l0.1,0.3
		l-0.3,2v1.4l-0.4,1l0.1,0.8l-0.1,1.4c0,1.1,0.2,2,0.5,2.7l-0.1,0.3l0.5,0.4l0.6-0.2l0.7,0.3l0.8-0.4c0.2-0.2,0.6-0.3,1-0.4l0.4-0.4
		l0.1,0.2l0.4-0.5l0.6-0.2c0.4-0.4,0.9-0.7,1.5-0.8c0.1-0.3,0.4-0.4,0.8-0.5l0.4-0.6l0.7-0.1l-0.1-0.6h0.3l0.1-0.3l1.3-0.6l0.1-0.7
		l1.1,0.1C341.9,67.2,342,67.3,342.1,67.5z"/>
	<path class="st0" d="M365.6,68.1c0.3,0.2,0.4,0.4,0.4,0.6c0,0.5-0.1,0.8-0.4,0.8c-0.5,0.8-0.9,1.1-1.4,1.1c0,0.2-0.7,0.8-2,2
		c-0.4,0.1-0.6,0.2-0.8,0.3c-0.1,0.1-0.4,0.4-0.8,0.7c-0.5,0-0.9,0.3-1.1,0.7l-0.6,0.2l-0.2-0.1l-0.2,0.5h-0.2
		c-0.3,0-0.7,0.1-1.3,0.4s-0.9,0.4-1,0.4l-0.6,0.2H355l-0.4-0.5l-0.6-0.5c-0.2-0.6-0.5-1.1-0.9-1.6l-0.2-1.4l0.1-0.7l-0.3-0.4
		l0.1-1.7l-0.1-1.5l0.1-0.7c0.1-0.2,0.2-0.3,0.2-0.5c0-0.3-0.1-0.6-0.4-1.1c0.2-1.7,0.2-2.6,0.2-2.8c0-0.4-0.2-0.7-0.5-1.1l0.5-0.2
		L353,59l-0.1-1l0.4-1.1l-0.3-1.2c0.3-0.4,0.5-0.9,0.5-1.6v-2l0.2-0.5l-0.1-2.9l0.2-2.9c-0.3-0.7-0.4-1.5-0.3-2.3l0.2-1.8l-0.2-0.6
		l0.3-2.7c0.2-0.1,0.4-0.2,0.7-0.3s0.4-0.2,0.5-0.2c0,0,0.1,0,0.2,0.1l0.3,1l0.6,0.5l-0.4,0.6v0.2c0,0.2,0.1,0.5,0.2,0.7
		c0,0.7-0.2,1-0.4,1l0.2,0.3c0.1,1.2,0.2,2.1,0.3,2.5l-0.5,1.6l0.4,0.5c-0.4,0.8-0.7,1.5-0.7,2.3c0,0.4,0.2,0.6,0.5,0.7l-0.4,1.1
		c0.2,0.4,0.2,0.6,0.2,0.7c0,0.2-0.1,0.5-0.2,0.8l0.1,0.7l-0.3,1.9l0,0.9c0,0.3-0.2,0.9-0.5,1.9l0.3,1.3l-0.2,2.3l-0.3,0.2l0.4,0.7
		l-0.3,1.1l-0.2,1.8l0.2,0.4l-0.2,0.2c0.3,0.3,0.4,0.8,0.4,1.4c0,0.1-0.1,0.4-0.3,0.7l0.3,0.7l-0.1,0.9l0.3,0.6l-0.1,0.5l0.6,2
		l0.7,0.3c0.7-0.4,1.2-0.5,1.4-0.5l0.4,0.1l0.8-0.7c0.1-0.1,0.3-0.2,0.7-0.3c0.2-0.4,0.5-0.5,1-0.6l0.3-0.3L361,71l0.1-0.3l0.6-0.2
		l0.6-0.4l0.6-0.2c0,0,0.2-0.2,0.6-0.5c0.3-0.3,0.6-0.6,0.9-0.7c0-0.2,0.1-0.3,0.4-0.4c0.1,0.1,0.1,0.1,0.2,0.1
		C365.1,68.4,365.3,68.3,365.6,68.1z"/>
	<path class="st0" d="M405.2,64c-0.4,0.3-0.6,0.7-0.6,1.1c0,0.2,0,0.4,0.1,0.6l0.4,2.2l-0.4,2.3l0.1,1l-0.3,0.8l0.2,2.6l-0.2,0.4
		v2.1l-0.1,1.7l0.2,0.6l-0.1,4l0.3,0.7l-0.3,0.4l0.2,1.1l-0.3,0.3l0.2,0.9h-0.2l-0.1,0.5v0.9l-0.3,0.7l0.1,0.5l-1.3,2.2l-0.1,1.1
		l-0.3-0.1l-0.5,0.7c-0.5,0.6-0.9,1.1-1.1,1.5l-1.1,0.6c-0.3,0.9-0.9,1.4-1.7,1.4c0,0,0.1,0.1,0.1,0.2c0,0.1-0.1,0.2-0.2,0.2
		l-0.3,0.2c-0.6,0.3-0.9,0.5-1,0.7h-0.7l-0.2,0.2l-0.8-0.2l-1.2,0.8L393,99l-1.9,0.3l-0.5-0.1l-0.3,0.1l-1.8-0.3H388l-0.6-0.6
		l-0.3,0.1l-2.1-0.7l-1.5-0.2l-0.4-0.6l-1-0.1l-0.4-1l-0.6-0.2l-0.8-1.1l-0.8-0.4l-0.8-1.1c-0.1-0.2-0.3-0.3-0.5-0.4l-0.9-0.5
		l0.3-0.8l-0.6-0.6l0.1-0.4c0-0.4-0.1-0.9-0.4-1.6c-0.1-0.3-0.1-0.6-0.1-0.8c0-0.3,0.1-0.7,0.2-1.2l0.2-0.7v-0.2l0.4-0.2l0.1-0.3
		l0.2,0.1l0.1-0.7c0.1-0.3,0.5-0.8,1.4-1.6l0.8-0.2l1.4-1.3l1.7,0.1c0.3-0.4,0.5-0.6,0.7-0.6c0.3,0,0.4,0.2,0.4,0.5
		c0,0.1,0,0.2-0.1,0.3l-0.8,0.4l-0.5,0.4c-0.2,0.1-0.6,0.3-1.4,0.5l-0.4,0.8h-0.8c-0.4,0.7-1,1.4-1.7,2.1l0.1,1.1
		c-0.3,0.5-0.5,1-0.5,1.5l-0.3,0.2l1.3,3.1l1.2,0.4l0.2,0.7l1.9,1.8l0.7,0.2c0.3,0.1,0.5,0.2,0.8,0.4l0.8,0.8h1l0.7,0.7l1-0.1
		l0.4,0.4l3.4-0.1l0.5-0.1v0.1c0,0.2,0.1,0.3,0.2,0.3c0,0,0.1,0,0.1-0.1c0.4-0.4,0.9-0.6,1.6-0.6h0.3l1.9-0.8v0.3
		c0.3-0.2,0.4-0.3,0.4-0.4h-0.2c0.1-0.1,0.2-0.1,0.4-0.1c0.1,0,0.2,0,0.3,0.1c0.1-0.4,0.2-0.5,0.5-0.5h0.2l0.1-0.4
		c0.3,0,0.4-0.2,0.4-0.5h0.1c0.2,0,0.4-0.1,0.5-0.4s0.3-0.4,0.5-0.5l0.2,0.1c0.1-0.5,0.4-0.9,0.9-1.3c0.5-0.4,0.7-1,0.7-1.6h0.3
		c0.6-1.3,1-2.3,1.3-3l-0.1-0.2l0.1-1.5l0.3-0.2v-1.4l0.2-0.4l-0.5-0.7c0.4-0.4,0.5-0.5,0.5-0.6s0-0.2-0.1-0.5s-0.1-0.6-0.1-0.9
		v-0.2l0.1-2.5v-3.5l-0.3-0.7l0.3-1.2L403,72v-3.2l-0.1-0.7l0.2-0.6l-0.2-0.6l0.2-0.5l-0.1-2.2l-0.6-0.5l0.6-0.6l-0.1-0.5l0.1-0.9
		l-0.3-0.4l0.1-0.7l-0.4-0.7c-0.2,0.2-0.4,0.4-0.8,0.5l-0.3,0.7l-0.5,0.3l-0.1,0.7l-1,0.7l0.1,0.3l-0.5,0.7l-0.4,0.1l-0.2,0.3
		l-0.9,0.3v0.8h-0.4l-0.2,0.7l-2,1.9l-1.4,1.6l-0.7,0.2l-0.4,0.6l-1.4,1.3l-0.6,0.1c0,0-0.4,0.4-1.1,1l-0.2,0.5l-0.5,0.3h-0.5
		l-0.3,0.6l-0.6,0.1l-1.2,1.2l-1.1,0.2l-0.4,0.4c-0.3,0.1-0.7,0.2-1.2,0.4l-0.2,0.5c-0.2,0.1-0.7,0.2-1.4,0.2
		c-0.9,0-1.4-0.2-1.6-0.5l-1.2-2.1l-0.1-1l-0.6-2.2v-1.9l-0.2-0.6l0.4-1.5l-0.3-0.9l0.3-0.3l0.1-0.8l0.4-0.9l-0.1-1.4l0.3-0.8
		l-0.3-0.5l0.6-2.8l-0.2-1.8l0.2-1.6l-0.5-2.2l0.2-0.5l-0.2-0.4l0.5-1.2l-0.2-0.5l0.4-0.4v-0.8l0.7-0.1c0.2,0.5,0.4,0.9,0.8,1.2
		l-0.2,0.4l0.4,0.1l-0.2,0.8l0.5,0.8l-0.2,0.4l0.2,1l0.3,0.2l-0.4,0.9l0.4,1.6l-0.7,1l0.4,0.4l-0.4,2.3v2.1l-0.3,0.3l-0.2,3.1
		l-0.6,0.8l0.1,0.6v1.4l0.3,0.8l-0.3,0.7l0.1,1l-0.2,0.5l0.2,0.5v0.7l0.6,0.7l0.2,0.7l0.4-0.1l0.1,0.4l0.5-0.3l1.3,0.1l0.4-1
		l1.5-0.6l0.1,0.2c0-0.3,0.2-0.6,0.5-0.7c0.3-0.1,0.6-0.4,1-0.7c0.4-0.3,0.8-0.6,1.3-0.7l-0.1,0.3c0.2-0.1,0.3-0.2,0.3-0.3
		c0,0,0-0.1-0.1-0.3c0.4,0,1-0.5,1.9-1.4c0.9-0.9,1.8-1.4,2.8-1.5l0.7-1.2l0.1,0.4v-0.5c0.6-0.1,0.9-0.4,0.9-1l0.7-0.5
		c0.4-0.2,0.6-0.5,0.6-0.8v-0.2c0.5-0.4,1.1-0.7,1.5-0.8l0.1-0.5c0.7-0.9,1.2-1.5,1.5-2c0.6-0.3,1-0.7,1.3-1.2l1.1-2.3l-0.1-1.4
		l0.5-0.2v-1.1l-0.3-1l0.2-0.9l-0.5-0.3l-0.1-0.2c0-0.1,0.1-0.4,0.3-0.7c0.2-0.3,0.3-0.6,0.4-0.8l0.2-0.2l0.1-0.4
		c0.2-0.2,0.5-0.2,0.7-0.2l1.3,1.3l0.1,0.7l0,0.6c0,0.1,0.2,0.5,0.6,1.1l-0.4,0.4l0.1,0.8l-0.1,0.7l0.5,0.5l-0.5,0.1v0.8l-0.3,1.1
		l0.3,1.6l-0.1,1.1l0.2,0.4l-0.1,1.1L405.2,64z"/>
	<path class="st0" d="M455.4,68.1c0.3,0.2,0.4,0.4,0.4,0.6c0,0.5-0.1,0.8-0.4,0.8c-0.5,0.8-0.9,1.1-1.4,1.1c0,0.2-0.7,0.8-2,2
		c-0.4,0.1-0.6,0.2-0.8,0.3c-0.1,0.1-0.4,0.4-0.8,0.7c-0.5,0-0.9,0.3-1.1,0.7l-0.6,0.2l-0.2-0.1l-0.2,0.5h-0.2
		c-0.3,0-0.7,0.1-1.3,0.4s-0.9,0.4-1,0.4l-0.6,0.2h-0.4l-0.4-0.5l-0.6-0.5c-0.2-0.6-0.5-1.1-0.9-1.6l-0.2-1.4l0.1-0.7l-0.3-0.4
		l0.1-1.7l-0.1-1.5l0.1-0.7c0.1-0.2,0.2-0.3,0.2-0.5c0-0.3-0.1-0.6-0.4-1.1c0.2-1.7,0.2-2.6,0.2-2.8c0-0.4-0.2-0.7-0.5-1.1l0.5-0.2
		l0.2-2.3l-0.1-1l0.4-1.1l-0.3-1.2c0.3-0.4,0.5-0.9,0.5-1.6v-2l0.2-0.5l-0.1-2.9l0.2-2.9c-0.3-0.7-0.4-1.5-0.3-2.3l0.2-1.8l-0.2-0.6
		l0.3-2.7c0.2-0.1,0.4-0.2,0.7-0.3s0.4-0.2,0.5-0.2c0,0,0.1,0,0.2,0.1l0.3,1l0.6,0.5l-0.4,0.6v0.2c0,0.2,0.1,0.5,0.2,0.7
		c0,0.7-0.2,1-0.4,1l0.2,0.3c0.1,1.2,0.2,2.1,0.3,2.5l-0.5,1.6l0.4,0.5c-0.4,0.8-0.7,1.5-0.7,2.3c0,0.4,0.2,0.6,0.5,0.7l-0.4,1.1
		c0.2,0.4,0.2,0.6,0.2,0.7c0,0.2-0.1,0.5-0.2,0.8l0.1,0.7l-0.3,1.9l0,0.9c0,0.3-0.2,0.9-0.5,1.9l0.3,1.3l-0.2,2.3l-0.3,0.2l0.4,0.7
		l-0.3,1.1l-0.2,1.8l0.2,0.4l-0.2,0.2c0.3,0.3,0.4,0.8,0.4,1.4c0,0.1-0.1,0.4-0.3,0.7l0.3,0.7l-0.1,0.9l0.3,0.6l-0.1,0.5l0.6,2
		l0.7,0.3c0.7-0.4,1.2-0.5,1.4-0.5l0.4,0.1l0.8-0.7c0.1-0.1,0.3-0.2,0.7-0.3c0.2-0.4,0.5-0.5,1-0.6l0.3-0.3l0.4,0.1l0.1-0.3l0.6-0.2
		l0.6-0.4l0.6-0.2c0,0,0.2-0.2,0.6-0.5c0.3-0.3,0.6-0.6,0.9-0.7c0-0.2,0.1-0.3,0.4-0.4c0.1,0.1,0.1,0.1,0.2,0.1
		C455,68.4,455.2,68.3,455.4,68.1z"/>
	<path class="st0" d="M474.4,37.3c-0.1,0.4-0.5,0.7-1,1v0.4l-0.5,0.6c-0.2,0.2-0.3,0.4-0.5,0.4c-0.1,0-0.2,0-0.3-0.1l-1.6,1.9
		l-0.4,0.6l-1.4,0.4l-0.7,1.1l-0.7,0.3c-0.2,0.1-0.6,0.5-1.3,1.1l-0.4-0.2l-0.1-0.7l1.4-0.6c0.2-1,0.4-1.5,0.7-1.7
		c0.3-0.1,0.5-0.2,0.5-0.2v-0.2l0.3-0.2l0.1,0.1l0.1-0.4h0.2l-0.2-0.5h0.9v-0.8l0.4-0.1l0.3-0.5l0.5-0.2l0.4-0.8
		c0.2,0,0.3-0.1,0.4-0.4h0.4l0.1-0.6c0.4-0.4,0.7-0.8,0.7-1.2C473.7,36,474.3,36.5,474.4,37.3z M480.4,67.5l-0.1,0.6l-0.6,0.4
		l-0.2,0.7l-0.8,0.2c-0.3,0.8-0.5,1.3-0.8,1.5l-0.7,0.3l-0.6,0.7c-0.2,0.1-0.5,0.4-1,1.1H475c-0.3,0.4-0.7,0.6-1.3,0.7
		c-0.4,0.5-0.7,0.8-0.7,0.9c-0.3,0.2-0.7,0.3-1.1,0.4s-0.7,0.2-0.9,0.2l-0.2,0.4h-1l-0.5,0.4l-1.5-1.1l-0.8-1.9l-0.1-3.1l-0.2-0.6
		l0.6-4.9l0.4-0.3l-0.2-3.1c0-0.4,0.1-0.7,0.2-1s0.2-0.8,0.3-1.3l0.2-0.1c0-0.5-0.1-1.1-0.4-1.7l0.2-0.8v-1.1l0.3-0.4
		c0-0.3-0.1-0.6-0.2-1c-0.1-0.4-0.1-0.6-0.1-0.6c0-0.3,0.1-0.5,0.2-0.5c0,0,0.1,0.1,0.1,0.1c-0.3-0.6-0.4-1-0.4-1.2
		c0-0.3,0.1-0.4,0.4-0.4c0.1,0,0.2,0.1,0.4,0.2c0.2,0.1,0.3,0.2,0.5,0.2c0,0,0.1,0,0.3-0.1c0-0.3,0.1-0.5,0.4-0.5
		c0.2,0,0.4,0,0.4,0.1s0.1,0.5,0.2,1.1l0.6,0.3l-0.5,0.7l-0.6,3.8l0.5,1c0,0.5-0.2,0.8-0.6,1.1l-0.2,0.8l0.2,0.7l-0.7,2.5l0.1,0.3
		l-0.3,2v1.4l-0.4,1l0.1,0.8l-0.1,1.4c0,1.1,0.2,2,0.5,2.7l-0.1,0.3l0.5,0.4l0.6-0.2l0.7,0.3l0.8-0.4c0.2-0.2,0.6-0.3,1-0.4l0.4-0.4
		l0.1,0.2l0.4-0.5l0.6-0.2c0.4-0.4,0.9-0.7,1.5-0.8c0.1-0.3,0.4-0.4,0.8-0.5l0.4-0.6l0.7-0.1l-0.1-0.6h0.3l0.1-0.3l1.3-0.6L479,67
		l1.1,0.1C480.2,67.2,480.3,67.3,480.4,67.5z"/>
	<path class="st0" d="M514.9,38.7c0,0.3-0.1,0.5-0.4,0.8l-0.2-0.2l-0.6,0.4l-0.5-1.1c-0.4-1.1-0.7-1.8-1-2.1s-0.5-0.5-0.6-0.5
		l-0.4,0.3c-0.4-0.3-1-0.5-1.7-0.6l-0.7,0.5c-0.3-0.2-0.6-0.3-0.9-0.3l-1.5,0.2c-0.2,0.3-0.2,0.5-0.2,0.8c-0.1,0.2-0.2,0.2-0.2,0.2
		c0,0-0.1,0-0.1-0.1c-0.1-0.1-0.1-0.1-0.1-0.1c-0.3,0-1.1,1.2-2.4,3.6c-0.2,1.1-0.3,1.7-0.5,2.1l-0.3,0.1c-0.2,0.8-0.5,1.6-0.8,2.2
		l0.5,1.2l-0.7,0.3c-0.1,1-0.3,1.7-0.6,2l0.1,1l-0.8,2.2l0.1,1.1c0,0.3-0.1,0.7-0.4,1.3c-0.2,0.2-0.3,0.6-0.3,1.1c0,0.7,0.3,1,1,1
		h0.4c0.3-0.3,0.6-0.4,0.9-0.4h0.2c0.2,0,0.5,0,0.9-0.1c0.1-0.1,0.3-0.1,0.7,0c0.4,0,0.7,0.1,1,0.1h0.5c0.4-0.2,0.7-0.2,0.7-0.2
		c0.2,0,0.6,0.1,1.3,0.4l1.3-0.3c0,0,0.1,0,0.3,0.1c0.2,0.1,0.4,0.1,0.6,0.1c0.3,0,0.6,0,0.8-0.1c0.2,0.3,0.4,0.4,0.6,0.4
		c0.3-0.2,0.6-0.3,0.8-0.3c0.1,0,0.2,0.1,0.2,0.3c0,0.1,0,0.3-0.1,0.7l-1.7,0.6L508,57c-0.3,0.3-0.8,0.4-1.5,0.6
		c-0.3-0.3-0.5-0.5-0.8-0.5c-0.1,0-0.5,0.2-1.2,0.7c-0.2,0-0.5-0.1-1.1-0.2l-0.2,0.3l-0.9,0.4l-0.6-0.4l-0.4,0.1h-0.5
		c-0.1,0-0.3,0.2-0.6,0.4c-0.3,0.3-0.5,0.4-0.8,0.4l-0.7,0.8l0.2,0.8l-0.2,1l0.2,1l-0.6,1.4l0.2,2.5l-0.4,0.9l0.2,0.8l-0.6,1.4
		l0.3,1.3v0.1c0,0.1-0.1,0.3-0.2,0.8c-0.1,0.5-0.2,1-0.2,1.6l-0.1,1.6c0,0.6,0.1,1,0.4,1.3l-0.3,0.8l0.4,1.4l-0.3,0.9l0.7,3.3
		l0.2,3.6l1,1.3l-0.4,0.3l-0.2,0.9c0.5,0.6,0.7,1.2,0.7,1.8v0.3c0.1,0.4,0.2,0.8,0.2,1c0,0.5-0.2,0.8-0.7,0.8l-0.3-0.7l-0.5-0.3
		l-0.1-0.7l-1.2-3.5v-0.9l-0.4-0.5l0.4-0.6l-0.3-1.3l0.2-1c0,0,0-0.2-0.1-0.4s-0.1-0.6-0.1-1s0-0.6,0-0.7l-0.4-3.1l0.2-0.1l-0.3-1.5
		l0.1-1.1l-0.3-0.6l0.2-0.4l-0.1-3.2l0.2-0.3v-2.5l0.3-0.5l-0.1-2.1l0.1-0.6l0.5-4c0-0.2,0.1-0.4,0.2-0.7s0.1-0.6,0.1-0.7
		c0,0-0.2-0.4-0.5-1.2l-1,0.4l-0.9-0.3l-0.6,0.4l-0.7-0.4l-0.2,0.3l-1,0.2l-1-0.2l-1.7,0.3l-0.9-0.2l-0.3,0.2
		c-0.7-0.2-1.1-0.4-1.4-0.6c-0.2-0.2-0.4-0.6-0.6-1.2l0.3-0.9c0.1-0.3,0.2-0.4,0.5-0.4c0.2,0,0.5,0.1,1.1,0.3l0.2,0.4l1.9-0.2
		l2.4,0.2l1.7-0.4l1.2,0.1c0.5,0,0.9,0.1,1.1,0.4c0-0.1,0.2-0.3,0.7-0.5l-0.2-0.6l0.3-1.2l0.1-1.1c0-0.4,0.1-0.9,0.4-1.5l-0.2-1.5
		c0-0.1,0.1-0.2,0.2-0.4c0.1-0.2,0.2-0.4,0.2-0.7v-0.3l0.6-0.6l0.3-2l0.4-0.5l-0.2-0.9c0.3-0.5,0.6-1,0.7-1.4c0-0.1-0.1-0.2-0.1-0.3
		c0-0.2,0.1-0.5,0.2-0.9c0.2-0.4,0.3-0.7,0.3-0.9c0.1-0.2,0.2-0.4,0.4-0.7c0.2-0.3,0.3-0.6,0.3-0.7l-0.1-0.3v-0.2
		c0-0.3,0.2-0.5,0.5-0.7l-0.2-0.3c0-0.2,0.2-0.4,0.5-0.6c0.4-0.6,0.8-1.3,1-2c0.3,0,0.7-0.5,1-1.4l0.9-0.3h0.8l0.4-0.5l1.1,0.4
		c0.6-0.3,1.2-0.5,1.6-0.5l1.2,0.3c0.4,0.2,0.7,0.2,0.8,0.2c0.2,0,0.5-0.1,0.8-0.2c0.2,0.1,0.3,0.4,0.5,0.9l0.9,0.6
		c0.3,0.8,0.8,1.5,1.3,2l0.2,1.3V38.7z"/>
	<path class="st0" d="M536.1,70c0.3,0.5,0.4,0.8,0.4,1c0,0.2-0.2,0.5-0.5,1c-0.4,0.5-0.6,1-0.8,1.6l-0.4,0.1l-0.6,1.3l-0.7,0.1
		l-1.6,1.1l-0.3,0.6l-0.5-0.1l-0.5,0.6h-0.8l-0.2,0.3l-0.4-0.1c-0.4,0-0.8,0.2-1.1,0.6l-0.4-0.3c-0.4,0.2-0.7,0.3-1,0.3
		c-0.4,0-0.8-0.1-1.1-0.3c-0.2,0-0.5,0.1-0.8,0.1l-0.4-0.3c-1.1-0.1-1.8-0.4-2.2-0.9V76l-1-0.5l-0.2-0.6c-0.1-0.2-0.3-0.4-0.6-0.8
		v-0.5l-0.7-2.8l0.1-2l0.2-1.1v-1.3l0.3-1.1l-0.1-0.8c0.2-0.2,0.4-0.4,0.4-0.7s0.2-0.6,0.4-0.9c-0.1-0.4-0.2-0.8-0.2-1.5l0.5-0.4
		l-0.5-0.6c0.3-0.4,0.4-0.7,0.4-0.8l-0.3-1.8c0-0.4,0.1-0.8,0.2-1.3c0.2,0.4,0.5,0.5,0.8,0.5c0.2,0,0.5-0.1,1.1-0.2
		c0-0.1-0.1-0.3-0.1-0.4c0-0.3,0.2-0.5,0.5-0.7c0.3-1,0.8-1.9,1.3-2.8c0.4-0.3,0.6-0.7,0.6-1.2h0.3l0.3-0.6l0.4-0.1
		c0.1-0.3,0.3-0.5,0.6-0.9c0.4-0.1,1-0.6,1.6-1.4c0.1,0,0.2,0.1,0.5,0.1c0.1,0,0.2-0.2,0.5-0.7c0.7-0.2,1-0.4,1.1-0.4
		c0.2,0,0.4,0.1,0.5,0.4l0.6-0.1l0.3,0.2h0.4c0.2,0.6,0.6,1,1.2,1h0.2c0.1,0.3,0.2,0.5,0.4,0.6l-0.3,0.1c0.7,0.3,1,1.1,1,2.3
		l-0.2,0.7l0.2,1.7l-0.3,0.3l-0.7,1.8l-1.2,1.5l-0.1,0.8c-1.4,1.2-2.6,2-3.5,2.4c-0.1,0.2-0.2,0.4-0.4,0.4c-0.1,0-0.2,0-0.5-0.1
		l-1.3,0.9h-0.8l-1.1,0.5l-0.5-0.3c-0.1-0.1-0.5-0.2-1.2-0.2c-0.6,0.6-0.9,1.3-0.9,2.2l-0.4,0.5c-0.1,0.7-0.2,1.3-0.3,1.6l-0.3,0.2
		l0.3,2.2l-0.3,0.3l0.1,0.7l-0.1,0.8c0,0.1,0,0.5,0.1,1.1c0.1,0.6,0.3,1,0.5,1.1c-0.1,0.3,0.1,0.6,0.6,1c0.5,0.4,1,0.7,1.5,0.8v0.4
		l1.6,0.2l2.2,0.1l1.5-0.2c0.6-0.4,1-0.7,1.3-0.8l0.5-0.7h0.6l0.1-0.3c0.9-0.3,1.3-0.5,1.4-0.6c0.1-0.1,0.1-0.2,0.1-0.3
		c0.1-0.2,0.3-0.4,0.5-0.4l0.2-0.4c0.9-0.1,1.4-0.7,1.6-1.7C535.6,70.1,535.8,70,536.1,70z M531.2,56.3c0.2,0,0.4-0.3,0.8-0.7
		l0.2-0.7c0.5-0.8,0.8-1.3,0.8-1.6c0.1-0.2,0.1-0.5,0.1-0.8c0-0.3-0.1-0.9-0.4-1.8l-1.2-0.4c-0.3,0.1-0.5,0.1-0.6,0.1l-0.4-0.1
		c-0.3,0-0.5,0.2-0.6,0.5c-0.4,0-0.9,0.1-1.6,0.4l-0.2,0.4c-0.1,0-0.2-0.1-0.2-0.1c-0.1,0-0.1,0-0.2,0c0,0-0.1,0-0.1,0.1
		c0,0-0.1,0.1-0.1,0.1c0,0-0.1,0.1-0.1,0.2c0,0.1-0.1,0.2-0.1,0.2s-0.1,0.2-0.1,0.3s-0.2,0.3-0.4,0.5l-0.4,0.5l-0.8,1.6l-0.4,0.4
		c-0.1,0.1-0.2,0.4-0.3,0.8c-0.1,0.4-0.6,1.3-1.6,2.8l0.4,0.2l0.2,0.5l1,0.3c0.6-0.4,1.2-0.7,1.8-0.8l0.2-0.4
		c0.2,0.1,0.4,0.1,0.5,0.1c0.2,0,0.4-0.1,0.6-0.4l0.7-0.1L529,58h0.4l0.3-0.6c0.5,0,1-0.2,1.5-0.7V56.3z"/>
</g>
<g>
	<g>
		<path class="st1" d="M14.7,66.1C20.2,52.7,34.3,45.1,48,42.5c14.7-2.7,32.1,0,43.1,10.8c10,9.8,13.8,25.8,5.4,37.8
			c-9.3,13.4-27.1,16.6-42.3,14.5c-14-1.9-29.4-7.2-38.6-18.5c-4-4.9-6.3-11.2-5-17.5c1.3-6.2,5.9-11,11.3-14
			c12.8-7.2,27.3-4,39.3,3.3c6.8,4.1,12.9,9.3,18.7,14.6c2.7,2.5,5.9,5.2,7,8.9c1.2,4.1-1,8.2-3.9,11c-6.1,5.6-16.5,6.8-24.4,7.4
			c-6.9,0.5-15.4,0-18.3-7.5c-1.4-3.7-2.4-7.2-4.9-10.3c-2-2.5-4.6-4.6-7.5-6.1c-6.3-3.2-13.8-4-20.4-1.3c-1.8,0.7-2.4,2.6-1.1,4.2
			c7.4,8.7,21.2,10.5,30.6,4.2c0.9-0.6,1.5-1.7,1.1-2.8c-1.7-5.5-6.8-8.4-11.4-11.2c-3.2-1.9-10.7-6.6-5.3-10.8
			c5.4-4.2,14.5-1.3,20.2,0.5c8,2.6,16.3,7,21.1,14.2c2.4,3.6-0.6,5.3-4,5.6c-3.4,0.3-7-0.7-9.9-2.5c-3.3-2.1-4.7-5.9-0.7-8.2
			c1.4-0.8,2.9-0.8,4.4-0.9c8.6-0.3,17.3-0.6,25.9-0.9c6.6-0.2,18.7-0.8,19.9,8.2c0.6,4.3-3.8,5.3-7.3,4.9c-3.8-0.4-7-2.6-8.5-6.1
			c-0.5,1.2-1,2.4-1.5,3.7c5.7-0.9,11.6-1,17.3-0.3c4.1,0.5,8.4,1.3,11.9,3.5c3.4,2,5.5,5.7,4.2,9.7c-1.5,4.7-7.1,1.5-6.9-2.4
			c0.1-4.1,2.1-7.9,2-12.2c-0.1-4-1.4-7.9-3.5-11.3c-4.4-7.3-11.9-12.3-20-14.6c-11.4-3.1-23.3-1.5-34.7,0.2c-2.9,0.4-2,4.7,0.7,4.9
			c14,0.9,28,2.2,42,4c2.7,0.3,3.1-3.4,1.3-4.7c-8.3-5.4-17.3-9.9-26.7-12.9c-9-2.9-18.8-4.1-27.7-0.1c-7,3.2-12.8,9.1-15.8,16.2
			c-2.1,5-5.3,17.5,3.3,18.3c4.7,0.4,7.4-3.4,9.6-6.9c2.7-4.5,7.4-7,12.7-5.8c-0.2-1.5-0.4-3-0.6-4.6c-3.8,2.8-7.1,6.1-9.7,10
			c-2.2,3.3-4.8,7.8-4.8,11.9c0,7,8.3,6.4,13.2,6.6c5.4,0.2,10.8,0.6,16.1,0.4c4.7-0.2,9.6-1.1,13.3-4.3c3.3-2.9,5.1-7.5,3.7-11.7
			c-2.2-6.9-11.3-8-16.7-4.3c-6.9,4.7-8.1,15.1-5.7,22.6c2.4,7.3,9.6,13.5,17.6,10.7c3.7-1.3,6.4-4.6,6.7-8.6
			c0.3-4.3-2.4-7.6-6.2-9.3c-4.6-2-9.9-2.2-14.7-1c-5.5,1.5-9.1,4.9-12.9,8.9c-4,4.2-9.9,6.1-15.4,3.6c-5-2.3-7.7-8-6.6-13.3
			c0.4-1.7-0.7-3-2.4-3.2c-5.8-0.6-12-0.9-16.8,2.8c-3.9,3.1-5.4,8.7-2.4,12.9c2.9,4.3,9.1,6.4,13.5,8.6c5.6,2.7,11.5,5.3,17.7,6.6
			c6.2,1.3,12.4,1.4,18.5,0c6.3-1.4,12.1-4.1,18.1-6.6c12.5-5.1,25.5-7.8,39-8c6.4-0.1,13.8,1.4,19.8-1.6c2.2-1.1,4.6-2.6,6.1-4.7
			c0.7-1,0.9-2.2,1.4-3.3c0.4-0.7,1-1.1,1.4-1.9c0.4-1-0.2-2.4-1.1-2.8c-1.2-0.6-3.1-0.8-4.3,0.1c-1.6,1.2-0.9,3.1-1.1,4.8
			c-0.1,0.8,0.5,1.8,1.2,2.2c5.8,2.6,12.1,4.5,18.4,4.3c7.4-0.2,14.8-0.5,22.2-0.2c16.9,0.7,33.8,2.9,50.7,4.1
			c18.6,1.3,37.3,1.5,55.9-0.4c9.1-0.9,18.1-2.6,27.1-4.1c9.6-1.5,19.2-2.7,28.8-3.8c10.5-1.2,21-1.2,31.6-1.2
			c13.3,0.1,26.6,0.6,39.9,1.3c23.5,1.2,46.9,2.7,70.3,5c31.4,3.1,62.4,9.2,94.1,9.8c4.9,0.1,9.7,0.1,14.6,0c3.2,0,3.2-5,0-5
			c-16.9,0.2-33.7-0.6-50.5-2.5c-16.6-1.9-33-4.5-49.6-6.4c-22.2-2.5-44.6-4-67-5.3c-25-1.4-50.3-3-75.3-1.5c-16,1-32,3.5-47.8,6.3
			c-17.7,3.1-35.9,4.2-53.8,3.6c-17.9-0.6-35.8-2.6-53.6-4.1c-8.1-0.7-16.3-1.1-24.4-1.2c-5.7,0-11.5,0.8-17.2,0.2
			c-4.1-0.5-8.1-1.8-11.8-3.5c0.4,0.7,0.8,1.4,1.2,2.2c0.1-0.5,0.1-1.1,0-1.6c0-0.9-0.1-0.9-0.3,0c-0.7,0.4-1.4,0.8-2.2,1.2
			c0.5,0.1,0.6,0,0.3-0.2c-0.4-0.9-0.8-1.9-1.1-2.8c0.7-1.7-0.2-0.3-0.5,0.3c-0.5,0.7-0.7,1.4-1,2.1c-0.9,2.1-2.4,3.1-4.4,4.2
			c-4.5,2.5-10.3,1.3-15.3,1.3c-11-0.1-22.2,1.3-32.7,4.5c-10.1,3-19.4,8.6-29.8,10.6c-11.1,2.1-22-2-31.8-6.8
			c-3.4-1.7-12.7-4.6-11.7-9.7c1.3-6.5,11.1-5.3,15.8-4.8c-0.8-1.1-1.6-2.1-2.4-3.2c-3,14.5,12.6,25.6,25.5,18.5
			c3.2-1.8,5.3-4.7,7.9-7.3c2.9-2.9,6.8-4.6,10.8-4.9c3.2-0.3,7.6,0.1,10,2.4c3.1,2.9,0.4,7.2-3.2,7.7c-13.9,2-15.1-27.4-1.4-26
			c2.4,0.3,4.3,1.8,4.4,4.3c0.2,4.8-5.1,7.2-9.1,7.8c-4.4,0.7-9.1,0.2-13.6,0.1c-3.9-0.1-7.9,0-11.8-0.4c-2.4-0.2-2.5-1.3-1.9-3.3
			c0.7-2.1,1.6-4.1,2.7-5.9C46,69,49,65.7,52.6,63c1.6-1.2,1.7-4.1-0.6-4.6c-4.3-0.9-8.7-0.4-12.5,1.9c-3.9,2.3-5,5.9-7.7,9.1
			C31,70.3,29.2,72,28,70.8c-0.5-0.5-0.2-2.1-0.2-2.7c0-2.2,0.4-4.3,1.1-6.4c1.3-3.9,3.6-7.5,6.6-10.4c7.5-7.4,17.6-8.4,27.5-5.9
			C73.5,48,83.6,53,92.6,58.9c0.4-1.6,0.8-3.1,1.3-4.7c-13.9-1.8-27.9-3.1-42-4c0.2,1.6,0.4,3.3,0.7,4.9c11.9-1.8,25.5-3.7,36.8,1.5
			c8.9,4.1,16.9,13.3,14.7,23.6c-0.9,4.1-2.7,8.8-0.5,12.8c1.9,3.4,6.5,5.7,10.4,4.7c4.1-1.1,5.9-5.5,5.9-9.4
			c0.1-4.1-1.9-7.8-5.1-10.4c-3.8-3.1-8.8-4.4-13.5-5.2c-7.2-1.1-14.3-1.1-21.5,0c-1.8,0.3-2.1,2.4-1.5,3.7
			c3.4,7.8,14.1,11,21.4,6.8c4.2-2.4,4.5-7.8,2.8-11.9c-2-4.6-6.1-7.5-10.9-8.7c-6.2-1.5-13-0.7-19.4-0.5c-6.3,0.2-12.7,0.4-19,0.6
			c-2.3,0.1-4.6,0.2-6.7,1.2c-3.9,1.9-6.7,6.4-5.5,10.8c2.3,8.1,15,11.2,22.1,8.7c3.6-1.3,6.2-4.4,5.6-8.4
			c-0.7-4.9-5.7-9.3-9.5-12.2C51.3,57,40,52.4,30,52.2c-4.4-0.1-9.4,0.8-12.6,4c-2.8,2.8-3.4,7.4-1.5,10.9c1.9,3.5,5.7,5.6,9,7.5
			c3.2,1.9,7.4,4,8.6,7.9c0.4-0.9,0.8-1.9,1.1-2.8C26.9,84.8,16,83.3,10,76.3c-0.4,1.4-0.7,2.8-1.1,4.2c6.8-2.8,14.8-1.4,20.4,3.4
			c6.1,5.2,5.4,14.3,12.2,18.8c5.9,3.9,13.9,3.7,20.6,2.8c8.4-1.1,18-2.5,24.4-8.5c6.2-5.8,7.6-14.4,2.3-21.3
			c-2.6-3.5-6-6.3-9.3-9.1c-3.3-2.9-6.7-5.7-10.2-8.2c-13.2-9.5-29.7-15.4-45.5-9C10.6,54.5,1.4,68,7.1,82.4
			c5.9,14.7,22.5,22.8,37,26.4c17.2,4.3,36.7,3.8,50.8-8.4c12.4-10.7,14.5-27.9,6.5-41.9c-16.7-29.3-65.7-28.3-85.8-3.3
			c-2.4,3-4.2,6.2-5.7,9.7C8.6,67.7,13.4,69,14.7,66.1L14.7,66.1z"/>
	</g>
</g>
<g>
	<g>
		<path class="st1" d="M90.9,56.7c-3.9-4.1-7.8-8.3-12.8-11.2c-5.5-3.2-11.8-4-18.1-4.1c-6.3-0.1-12.8,0.1-18.7,2.4
			c-4.9,1.9-9.5,5.3-11.8,10.1c-1.3,2.8-1.9,5.9-2.3,9c-0.4,2.5-0.5,5-0.1,7.6c0.4,2.5,1.8,4.8,3.9,6.3c2.5,1.7,5.6,1.9,8.5,2
			c6.6,0.3,13.2,0.6,19.8,0.8c5.4,0.2,11.6-0.8,14-6.3c0.9-2.2,1.1-4.9-0.3-7c-1.6-2.5-4.4-3.2-7.1-3.6c-6.3-1-12.9-2-19.2-0.2
			c-5.6,1.5-10.2,5.2-12.5,10.5c-1.1,2.6-2.2,5.6-2.3,8.4c-0.1,3.1,2.1,5.1,4.9,5.9c2.7,0.7,5.8,0.8,8.6,0.9c3.1,0.1,6.1,0,9.2-0.2
			c6.3-0.5,12.6-1.7,18.7-3.7c5.1-1.7,10.4-3.8,14.4-7.5c4-3.8,5.8-9.2,4.2-14.6c-1.7-5.6-6.1-9.7-10.9-12.8c-2.5-1.6-5.1-3-7.6-4.5
			c-2.6-1.6-5-3.3-7.4-5.1c-4.9-3.5-10.3-5.8-16.4-6.5c-5.6-0.6-11.4,0.4-16.3,3.3c-4.5,2.7-8.1,6.9-9.9,11.8
			c-0.8,2.3-1.1,4.8-1.1,7.2c0,1,0.1,2.1-0.2,2.9c-0.2,0.8-0.3,1.1-1.2,1.2c-1.2,0.2-2.5,0.2-3.7,0.6c-1.4,0.5-2.6,1.2-3.7,2.2
			c-1.9,1.6-3.2,3.9-3.9,6.3c-1.7,6.1,1.1,12.4,3.6,17.9c1.2,2.6,2.7,5.1,5,6.8c2.1,1.6,4.8,2.5,7.4,2.9c2.6,0.4,5.3,0.5,8,0.4
			c3.2-0.1,6.4-0.2,9.6-0.7c5.9-1,10.8-4.8,16.8-5.6c2.9-0.4,6-0.3,8.8,0.4c2.9,0.7,5.5,2,8.3,2.9c3,0.9,6.3,1,9-0.8
			c2.7-1.7,5.1-4.2,7.5-6.4c2.1-1.9,5.5-3.9,5.7-7.1c0.1-1.6-0.7-3-1.4-4.4c-0.6-1.3-1.3-2.6-2.1-3.8c-3-5-7.2-8.5-13-9.9
			c-3.1-0.8-6.3-1.1-9.5-1.4c-3.1-0.3-6.2-0.6-9.3-0.4c-5.7,0.3-10.9,1.9-15.8,4.9c-4.1,2.5-7.9,5.5-11.8,8.3c-3.7,2.6-7.6,5-12,5.9
			c-3.3,0.7-8.7,0.5-10.3-3.1c-0.9-2.1,0.3-4.6,1.7-6.2c1.7-2,4-3.5,6.4-4.7c5.3-2.7,11.2-3.9,16.9-5.4c6.3-1.7,12.7-3.3,19.1-4.5
			c6.1-1.2,12.6-2.3,18.8-2.1c4.1,0.1,10.4,1.8,10.7,6.9c0.2,3.2,5.2,3.2,5,0c-0.3-5.4-4.5-9.4-9.4-11c-5.5-1.8-11.8-0.9-17.4-0.1
			c-12.1,1.6-23.9,4.7-35.6,8c-5.2,1.5-10.5,3.3-14.8,6.5c-4.1,3-7.8,8.2-6.2,13.6c1.5,4.8,6.4,7,11,7.4c4.5,0.3,9-1.2,12.9-3.2
			c7.8-4,13.9-10.8,22.1-14.2c5.2-2.2,10.9-2.2,16.4-1.7c2.8,0.2,5.6,0.6,8.3,1.1c2.6,0.5,5.1,1.2,7.3,2.8c1.8,1.4,3.2,3.3,4.4,5.2
			c0.6,1,1.2,2,1.7,3.1c0.3,0.6,1.2,2,1,2.4c-0.2,0.5-1.2,1.1-1.5,1.4c-0.5,0.4-1,0.9-1.5,1.3c-1.2,1.1-2.5,2.2-3.7,3.3
			c-1.8,1.6-3.8,4.1-6.3,4c-2.7,0-5.2-1.5-7.7-2.4c-2.7-1-5.5-1.5-8.3-1.7c-2.8-0.2-5.7,0.1-8.4,0.7c-2.8,0.6-5.4,1.8-8,3
			c-2.5,1.2-5.1,2.1-7.8,2.4c-2.8,0.4-5.7,0.4-8.5,0.4c-4.3,0-9.6,0-12.6-3.6c-1.6-1.9-2.6-4.5-3.5-6.8c-1.1-2.6-2.2-5.4-2.3-8.2
			c-0.1-4,2-8,6.3-8.4c2.8-0.3,5.2-1.2,6.3-4.1c0.8-2.1,0.6-4.3,0.6-6.5c0.1-4.3,2.3-8.3,5.4-11.2c7.4-6.9,18.9-6.1,27.2-1.2
			c2.5,1.5,4.8,3.3,7.1,4.9c2.3,1.6,4.7,3,7.1,4.4c4.4,2.6,9.1,5.2,11.7,9.8c2.3,3.9,2.2,8.2-1,11.6c-3.2,3.4-7.8,5.2-12.1,6.7
			c-5.4,1.8-11.1,3.1-16.8,3.7c-5.5,0.5-11.5,0.8-16.8-0.1c-0.7-0.1-1.6-0.3-2.1-0.7c-0.2-0.2-0.2-0.1-0.2-0.6
			c0-0.6,0.2-1.2,0.4-1.7c0.6-2.5,1.3-4.9,2.8-7c2.6-4,7.6-5.7,12.1-6.1c3-0.2,6.1,0,9,0.4c1.4,0.2,2.8,0.4,4.3,0.7
			c1,0.2,2.3,0.3,3.1,1c0.4,0.4,0.5,0.9,0.5,1.4c0,0.6-0.3,1.5-0.8,2.2c-1.1,1.6-3.3,2.2-5.2,2.4c-2.8,0.3-5.6,0-8.4-0.1
			c-3.1-0.1-6.2-0.3-9.3-0.4c-2.9-0.1-5.9,0-8.8-0.4c-1.9-0.3-3.5-1-4.2-2.9c-0.7-1.9-0.6-4.1-0.3-6.1c0.3-2.6,0.7-5.3,1.7-7.8
			c1.7-4.1,5.7-7,9.7-8.5c5.5-2,11.4-2,17.1-1.9c5.6,0.1,11,0.8,15.8,3.8c4.2,2.6,7.7,6.4,11.1,10C89.6,62.6,93.1,59.1,90.9,56.7
			L90.9,56.7z"/>
	</g>
</g>
<g>
	<g>
		<path class="st1" d="M31.2,37.3C17,39,8.1,53.1,6.9,66.5C6.5,70.3,7,74.2,8.7,77.6c1.6,3.3,4.3,5.8,7.5,7.5
			c3.2,1.8,6.7,2.8,10.1,3.9c4.3,1.3,8.6,2.5,12.9,3.6c8.2,2.2,16.6,4.3,25,5.7c7.8,1.3,16.1,1.9,23.6-1.1c3.4-1.4,7.1-3.7,8.1-7.6
			c1.2-4.5-2.3-7.3-5.5-9.7c-7.2-5.3-14.4-10.5-21.6-15.8c-1.8-1.3-3.6-2.6-5.4-3.9c-1.7-1.2-3.5-2.7-5.7-2.7
			c-3.9,0-5.8,4.2-5.4,7.6c0.2,1.7,1,3.7,0.6,5.4c-0.2,1-1,1.8-1.9,2.4c-2.4,1.7-5.5,2.3-8.3,2.7c-2.9,0.5-6.2,0.8-9-0.3
			c-2.5-1-3.8-3.3-3.7-6c0.3-7.2,8-10,13.9-11.3c8.3-1.8,16.9-2.3,25.4-1.7c3.8,0.2,7.2,0.8,10.2,3.4c2.8,2.5,5,5.7,7.2,8.8
			c2.4,3.4,4.6,6.9,6.7,10.5c1.7,3,4.2,6.6,3.5,10.2c-0.5,3-2.8,5.3-5.4,6.7c-3.3,1.8-7.2,2.1-10.9,2.2c-4.4,0-8.8-0.2-13.2-0.3
			c-4.2-0.1-8.4,0-12.6-0.5c-3.7-0.4-6.6-1.9-9.2-4.5c-2.6-2.7-4.9-5.7-7.7-8.2c-5.7-5.1-12.3-9-18.9-12.7c-3.2-1.8-6.7-3.4-9.6-5.6
			c-1.9-1.4-4.2-4.4-2.7-6.8c0.1-0.2,0.2-0.4,0.4-0.5c0,0,0.3-0.2,0.2-0.1c0.1,0,0.7-0.1,0.4-0.1c0.2,0,0.4,0,0.5,0
			c-0.1,0-0.3-0.1,0,0c0.2,0,0.6,0.2,0.6,0.2C8.5,59,9.3,59.5,9,59.2c0.1,0.1,0.5,0.4,0.3,0.3c0.4,0.3,0,0.2,0,0.1
			c0-0.1,0-0.5,0,0.1c0.1,3.2,5.1,3.2,5,0c-0.1-3.4-3.2-5.8-6.5-5.8c-3.8,0-6.3,3.2-6.6,6.8C0.5,69,10.1,72.9,16.1,76.2
			c6.8,3.8,13.7,7.7,19.4,13.1c2.7,2.6,4.9,5.8,7.8,8.3c3.2,2.9,6.9,4.3,11.2,4.8c4.3,0.5,8.7,0.4,13,0.5c4.5,0.1,9,0.3,13.4,0.2
			c7.5-0.1,16.4-2.2,19.9-9.7c1.8-3.9,1.3-7.9-0.4-11.7c-1.7-3.9-4-7.5-6.3-11c-2.3-3.6-4.8-7.1-7.5-10.5c-2.5-3.1-5.3-5.9-9-7.4
			c-3.9-1.6-8.6-1.6-12.8-1.6c-4.6-0.1-9.2,0.2-13.7,0.7c-7.6,0.9-16.8,2.2-22.2,8.2C24,65.7,23.3,74.7,29.8,79
			c2.9,1.9,6.6,2.3,9.9,2.1c3.3-0.2,6.8-0.8,9.9-1.9c3-1.1,6.1-2.8,7.5-5.9c0.9-2,0.9-4,0.5-6.1c-0.2-1.4-0.8-3.1-0.2-4.2
			c0.2-0.3,0.2-0.4,0.3-0.4c0.8,0.1,1.7,0.9,2.3,1.4c1.9,1.4,3.7,2.7,5.6,4.1c3.7,2.7,7.5,5.5,11.2,8.2c3.7,2.7,7.5,5.5,11.2,8.2
			c1,0.8,2.9,1.8,3.1,3.2c0.2,1.3-1.1,2.6-2.1,3.3c-2.9,2.2-7,3.1-10.6,3.4c-4,0.3-8,0-11.9-0.6c-8.8-1.4-17.5-3.6-26-5.9
			c-4.4-1.2-8.8-2.4-13.1-3.7c-3.4-1-6.8-2-9.9-4c-2.9-1.9-4.8-4.6-5.5-8c-0.7-3.4-0.2-7.1,0.7-10.5c1.6-6.1,5-12.3,10.2-16
			c2.4-1.7,5.2-3,8.2-3.4c1.3-0.2,2.5-1,2.5-2.5C33.7,38.5,32.6,37.1,31.2,37.3L31.2,37.3z"/>
	</g>
</g>
</svg>
