<?xml version="1.0" encoding="utf-8"?>
<!-- Generator: Adobe Illustrator 23.1.0, SVG Export Plug-In . SVG Version: 6.00 Build 0)  -->
<!DOCTYPE svg PUBLIC "-//W3C//DTD SVG 1.1//EN" "http://www.w3.org/Graphics/SVG/1.1/DTD/svg11.dtd" [
	<!ENTITY ns_extend "http://ns.adobe.com/Extensibility/1.0/">
	<!ENTITY ns_ai "http://ns.adobe.com/AdobeIllustrator/10.0/">
	<!ENTITY ns_graphs "http://ns.adobe.com/Graphs/1.0/">
	<!ENTITY ns_vars "http://ns.adobe.com/Variables/1.0/">
	<!ENTITY ns_imrep "http://ns.adobe.com/ImageReplacement/1.0/">
	<!ENTITY ns_sfw "http://ns.adobe.com/SaveForWeb/1.0/">
	<!ENTITY ns_custom "http://ns.adobe.com/GenericCustomNamespace/1.0/">
	<!ENTITY ns_adobe_xpath "http://ns.adobe.com/XPath/1.0/">
]>
<svg version="1.1" id="圖層_1" xmlns:x="&ns_extend;" xmlns:i="&ns_ai;" xmlns:graph="&ns_graphs;"
	 xmlns="http://www.w3.org/2000/svg" xmlns:xlink="http://www.w3.org/1999/xlink" x="0px" y="0px" viewBox="0 0 72 72"
	 style="enable-background:new 0 0 72 72;" xml:space="preserve">
<style type="text/css">
	.st0{fill-rule:evenodd;clip-rule:evenodd;fill:#D60202;}
	.st1{fill-rule:evenodd;clip-rule:evenodd;fill:#FFFFFF;}
</style>
<metadata>
	<sfw  xmlns="&ns_sfw;">
		<slices></slices>
		<sliceSourceBounds  bottomLeftOrigin="true" height="72" width="72" x="0" y="0"></sliceSourceBounds>
	</sfw>
</metadata>
<g>
	<path class="st0" d="M36,72L36,72c19.9,0,36-16.1,36-36l0,0C72,16.1,55.9,0,36,0l0,0C16.1,0,0,16.1,0,36l0,0C0,55.9,16.1,72,36,72z
		"/>
	<path class="st1" d="M18,26.2v20.4c0,1.1,0.8,2,1.9,2h31.8c1.1,0,1.9-0.9,1.9-2V26.2c0-1.2-0.7-2.2-1.9-2.2H19.9
		C18.7,24,18,25,18,26.2 M20.9,27.9c0-0.5,0.3-0.8,0.8-0.8c0.3,0,11.9,7.3,12.6,7.8l1.8,1.1c0.6-0.4,1.1-0.7,1.7-1.1
		c1.2-0.8,12-7.8,12.3-7.8c0.5,0,0.8,0.3,0.8,0.8s-1,1-1.7,1.4c-4.1,2.5-8.2,5.2-12.3,7.8c-0.2,0.2-0.7,0.5-1,0.5
		c-0.4-0.1-12.1-7.6-14.3-8.9C21.3,28.6,20.9,28.4,20.9,27.9"/>
</g>
</svg>
